<?xml version="1.0" encoding="iso-8859-1"?>
<!-- Generator: Adobe Illustrator 27.1.1, SVG Export Plug-In . SVG Version: 6.00 Build 0)  -->
<svg version="1.1" id="Layer_1" xmlns="http://www.w3.org/2000/svg" xmlns:xlink="http://www.w3.org/1999/xlink" x="0px" y="0px"
	 viewBox="0 0 250 250" style="enable-background:new 0 0 250 250;" xml:space="preserve">
<g>
	<g>
		<path style="fill:#BCBCBC;" d="M80.571,24.905c31.718,0,57.431,25.713,57.431,57.431s-25.713,57.431-57.431,57.431
			s-57.431-25.713-57.431-57.431S48.852,24.905,80.571,24.905 M80.571,12.905c-38.285,0-69.431,31.147-69.431,69.431
			s31.147,69.431,69.431,69.431s69.431-31.147,69.431-69.431S118.855,12.905,80.571,12.905L80.571,12.905z"/>
	</g>
	<path style="fill:none;stroke:#FF0000;stroke-width:3;stroke-miterlimit:10;" d="M80.571,109.072"/>
	<path style="fill:none;stroke:#BCBCBC;stroke-width:7;stroke-linecap:round;stroke-linejoin:round;stroke-miterlimit:10;" d="
		M84.002,41.033c19.812,0,35.873,16.061,35.873,35.873"/>
	<g>
		<path style="fill:#BCBCBC;" d="M195.72,226.095c-0.244,0-0.488-0.089-0.682-0.268l-73.167-68.102
			c-0.194-0.181-0.309-0.432-0.318-0.696c-0.009-0.266,0.087-0.523,0.268-0.718l31.141-33.457c0.181-0.194,0.432-0.309,0.696-0.318
			c0.013,0,0.024,0,0.036,0c0.252,0,0.496,0.096,0.682,0.268l73.167,68.102c0.404,0.377,0.427,1.01,0.051,1.414l-31.141,33.457
			C196.255,225.987,195.987,226.095,195.72,226.095z"/>
		<path style="fill:#BCBCBC;" d="M153.693,123.536l73.167,68.102l-31.141,33.457l-73.167-68.102L153.693,123.536 M153.694,121.536
			c-0.536,0-1.07,0.214-1.464,0.637l-31.141,33.457c-0.361,0.388-0.554,0.904-0.535,1.434c0.019,0.53,0.248,1.031,0.636,1.392
			l73.167,68.102c0.371,0.345,0.858,0.536,1.363,0.536c0.024,0,0.048,0,0.072-0.001c0.53-0.019,1.031-0.248,1.392-0.636L228.325,193
			c0.753-0.809,0.707-2.074-0.101-2.827l-73.167-68.102C154.671,121.713,154.182,121.536,153.694,121.536L153.694,121.536z"/>
	</g>
	<g>
		<path style="fill:#BCBCBC;" d="M131.064,146.17c-0.244,0-0.488-0.089-0.682-0.268l-14.348-13.354
			c-0.194-0.181-0.309-0.432-0.318-0.696c-0.009-0.266,0.087-0.523,0.268-0.718l11.446-12.297c0.197-0.212,0.465-0.319,0.732-0.319
			c0.244,0,0.488,0.089,0.682,0.268l14.348,13.354c0.193,0.181,0.309,0.432,0.317,0.696c0.01,0.266-0.086,0.523-0.267,0.718
			l-11.446,12.298C131.6,146.062,131.332,146.17,131.064,146.17z"/>
		<path style="fill:#BCBCBC;" d="M128.163,119.518l14.348,13.354l-11.447,12.298l-14.348-13.354L128.163,119.518 M128.163,117.518
			c-0.024,0-0.048,0-0.072,0.001c-0.53,0.019-1.031,0.248-1.392,0.636l-11.447,12.298c-0.753,0.809-0.707,2.074,0.101,2.827
			l14.348,13.354c0.371,0.345,0.858,0.536,1.363,0.536c0.024,0,0.048,0,0.072-0.001c0.53-0.019,1.031-0.248,1.392-0.636
			l11.447-12.298c0.753-0.809,0.707-2.074-0.101-2.827l-14.348-13.354C129.155,117.709,128.668,117.518,128.163,117.518
			L128.163,117.518z"/>
	</g>
</g>
</svg>
